<svg xmlns="http://www.w3.org/2000/svg" viewBox="0 0 800 200">
  <defs>
    <linearGradient id="bg" x1="0%" y1="0%" x2="100%" y2="100%">
      <stop offset="0%" style="stop-color:#0f0f1a"/>
      <stop offset="50%" style="stop-color:#1a1a2e"/>
      <stop offset="100%" style="stop-color:#0f0f1a"/>
    </linearGradient>
    <linearGradient id="accent" x1="0%" y1="0%" x2="100%" y2="0%">
      <stop offset="0%" style="stop-color:#667eea"/>
      <stop offset="100%" style="stop-color:#764ba2"/>
    </linearGradient>
    <linearGradient id="glow" x1="0%" y1="0%" x2="0%" y2="100%">
      <stop offset="0%" style="stop-color:#667eea;stop-opacity:0.3"/>
      <stop offset="100%" style="stop-color:#667eea;stop-opacity:0"/>
    </linearGradient>
  </defs>

  <rect width="800" height="200" fill="url(#bg)"/>

  <g opacity="0.1">
    <line x1="0" y1="50" x2="800" y2="50" stroke="#667eea" stroke-width="0.5"/>
    <line x1="0" y1="100" x2="800" y2="100" stroke="#667eea" stroke-width="0.5"/>
    <line x1="0" y1="150" x2="800" y2="150" stroke="#667eea" stroke-width="0.5"/>
    <line x1="100" y1="0" x2="100" y2="200" stroke="#667eea" stroke-width="0.5"/>
    <line x1="200" y1="0" x2="200" y2="200" stroke="#667eea" stroke-width="0.5"/>
    <line x1="300" y1="0" x2="300" y2="200" stroke="#667eea" stroke-width="0.5"/>
    <line x1="500" y1="0" x2="500" y2="200" stroke="#667eea" stroke-width="0.5"/>
    <line x1="600" y1="0" x2="600" y2="200" stroke="#667eea" stroke-width="0.5"/>
    <line x1="700" y1="0" x2="700" y2="200" stroke="#667eea" stroke-width="0.5"/>
  </g>

  <g opacity="0.6">
    <circle cx="80" cy="60" r="4" fill="#667eea"/>
    <circle cx="120" cy="90" r="3" fill="#764ba2"/>
    <circle cx="60" cy="130" r="3" fill="#667eea"/>
    <circle cx="140" cy="150" r="4" fill="#764ba2"/>
    <line x1="80" y1="60" x2="120" y2="90" stroke="#667eea" stroke-width="1" opacity="0.5"/>
    <line x1="120" y1="90" x2="60" y2="130" stroke="#764ba2" stroke-width="1" opacity="0.5"/>
    <line x1="60" y1="130" x2="140" y2="150" stroke="#667eea" stroke-width="1" opacity="0.5"/>
    <line x1="120" y1="90" x2="140" y2="150" stroke="#764ba2" stroke-width="1" opacity="0.3"/>
  </g>

  <g opacity="0.6">
    <circle cx="720" cy="50" r="3" fill="#764ba2"/>
    <circle cx="680" cy="85" r="4" fill="#667eea"/>
    <circle cx="740" cy="120" r="3" fill="#667eea"/>
    <circle cx="700" cy="160" r="4" fill="#764ba2"/>
    <line x1="720" y1="50" x2="680" y2="85" stroke="#764ba2" stroke-width="1" opacity="0.5"/>
    <line x1="680" y1="85" x2="740" y2="120" stroke="#667eea" stroke-width="1" opacity="0.5"/>
    <line x1="740" y1="120" x2="700" y2="160" stroke="#764ba2" stroke-width="1" opacity="0.5"/>
    <line x1="680" y1="85" x2="700" y2="160" stroke="#667eea" stroke-width="1" opacity="0.3"/>
  </g>

  <g opacity="0.4">
    <path d="M160 100 L200 100" stroke="url(#accent)" stroke-width="2" stroke-linecap="round"/>
    <path d="M195 95 L205 100 L195 105" fill="none" stroke="url(#accent)" stroke-width="2" stroke-linecap="round" stroke-linejoin="round"/>
  </g>

  <g opacity="0.4">
    <path d="M600 100 L640 100" stroke="url(#accent)" stroke-width="2" stroke-linecap="round"/>
    <path d="M595 95 L585 100 L595 105" fill="none" stroke="url(#accent)" stroke-width="2" stroke-linecap="round" stroke-linejoin="round"/>
  </g>

  <g transform="translate(400, 100)">
    <rect x="-140" y="-40" width="280" height="80" rx="12" fill="#0f0f1a" stroke="url(#accent)" stroke-width="2"/>
    <rect x="-140" y="-40" width="280" height="80" rx="12" fill="url(#glow)" opacity="0.3"/>
    <text x="0" y="15" text-anchor="middle" font-family="'SF Mono', 'Fira Code', monospace" font-size="48" font-weight="700" fill="url(#accent)">503BeGone</text>
  </g>

</svg>
